<?xml version="1.0" encoding="utf-8"?>
<svg version="1.1" id="Layer_1" xmlns="http://www.w3.org/2000/svg" xmlns:xlink="http://www.w3.org/1999/xlink" x="0px" y="0px" viewBox="0 0 600 200" style="enable-background:new 0 0 600 200;" xml:space="preserve">
	<path fill="#6CAC6E" d="M548.8,106.6L548.8,106.6L548.8,106.6z"/>
	<path fill="#6CAC6E" d="M551.1,105.2c-0.2-1.6-2.1-1.7-2.8-1.7c-96.6-2.5-206.7,20-279.6,34.9c-41.6,8.5-77.7,15.9-82.9,12.1
		c3.3-5.9,53.7-32.1,87.3-49.5c59.3-30.8,61.5-32.8,60.6-35.4c-1-2.8-8-2.2-86.8,11.8c-3.6,0.6-7.4,1.3-11.2,2
		c38-16.6,38-19.8,38-21.6c0-1.4-0.5-3.3-2.8-5c-9.8-6.9-46.3-2.7-78,9c-5,1.8-10.1,3.7-15,5.4c-36.7,13.2-57.4,21.1-55.4,29.2
		c0.5,1.9,2.7,2.7,13.3,1.9c6.7-0.6,16.2-1.8,29-3.7c13.5-2.1,29.1-4.7,45.4-7.5c-13.8,5.7-30.7,12.5-51.4,20.6
		C104.5,128.7,50,148.7,49.5,148.9c-0.8,0.3-1.2,1.1-0.9,1.9c0.3,0.8,1.1,1.2,1.9,0.9c0.6-0.2,56.2-20.6,111.2-42.1
		c26.4-10.3,46.6-18.5,62-25.1c7.9-1.4,15.9-2.8,23.7-4.2c35.5-6.3,72-12.8,81.8-13.2c-7,5-33.7,18.8-57.5,31.2
		c-52.8,27.4-87.5,45.8-88.9,51.8c-0.2,0.7-0.1,1.4,0.3,1.9c0,0,0,0.1,0.1,0.1c1.3,1.6,4.3,2.4,9.2,2.4c12.3,0,36.6-4.8,77-13.1
		c71.9-14.7,180.1-36.8,275.5-34.9c-5,2.1-14.4,5.3-23.2,7.9c-0.8,0.2-1.2,1.1-1,1.9c0.2,0.8,1.1,1.2,1.9,1
		C551.5,108.4,551.3,106.6,551.1,105.2z M222.8,81.7c-44,7.7-91.8,15.8-97.4,13.5c-0.3-5.9,28.3-16.2,53.6-25.3
		c4.9-1.8,9.9-3.6,15-5.4c26.9-9.8,65.6-16.1,75.3-9.3c1.3,0.9,1.5,1.8,1.5,2.4C270.1,59.2,263.2,64.5,222.8,81.7z"/>
	<path fill="#6CAC6E" d="M270.8,57.6L270.8,57.6L270.8,57.6z"/>
	<path fill="#6CAC6E" d="M348,114c-4.5,0-10.5-1.6-13.6-4.4c-1.5-1.4-2.3-3-2.3-4.7c0.2-6.1,5-11.4,8.2-12.4c2.3-0.7,11.9,0.2,17.4,3.6
		c2.4,1.5,3.8,3.3,4.2,5.4c0.5,2.7,0,5-1.5,7.1c-2,2.7-5.9,4.7-10.4,5.3C349.4,114,348.7,114,348,114z M342.5,95.2
		c-0.6,0-1.1,0-1.4,0.1c-2,0.6-5.9,4.8-6.1,9.6c0,0.8,0.4,1.6,1.3,2.4c2.8,2.6,9.6,4,13.3,3.5c3.7-0.5,6.9-2,8.4-4.1
		c1-1.4,1.3-2.9,1-4.8c-0.2-1.2-1.2-2.4-2.8-3.4C352.1,96.2,345.6,95.2,342.5,95.2z"/>
	<path fill="#6CAC6E" d="M369.8,107.6c-0.9,0-1.8-0.3-2.6-0.9c-2.6-2-4.2-7.6-4.8-17c-0.4-6.7-0.2-12.7-0.2-12.9c0-0.8,0.7-1.5,1.6-1.4
		c0.8,0,1.5,0.7,1.4,1.6c-0.4,9.2,0.3,24.7,3.8,27.4c0.4,0.3,0.8,0.4,1.3,0.2c7.5-2.3,10-11.7,10-11.8c0.2-0.6,0.7-1.1,1.4-1.1
		c0.7,0,1.2,0.3,1.5,0.9c0.2,0.5,5.6,13.4,17.7,9.8c0.8-0.2,1.6,0.2,1.9,1c0.2,0.8-0.2,1.6-1,1.9c-10.6,3.1-16.9-4.1-19.7-8.5
		c-1.6,3.5-4.8,8.7-10.8,10.6C370.7,107.5,370.2,107.6,369.8,107.6z"/>
	<path fill="#6CAC6E" d="M409.2,105.4c-1.5,0-1.8-0.3-2-0.5c-0.6-0.6-0.7-1.6-0.2-2.4c0.6-1,3-2.4,5.6-3.6c-7.4-1.2-17.6-3.7-17.9-7.3
		c-0.1-0.6,0.1-1.5,0.9-2.3c3.6-3.6,19.1-3,19.2-3c2.3,0.2,3.4,1.7,3.7,2.5c0.3,0.8-0.1,1.6-0.9,1.9c-0.8,0.3-1.6-0.1-1.9-0.8
		c-0.1-0.1-0.3-0.6-1.2-0.6c-3.8-0.3-15.3,0.4-16.8,2c1.7,2.1,15.7,5.1,20.8,5.4c1-0.2,1.8-0.3,2.2-0.2c0.7,0.2,1.2,0.8,1.2,1.6
		c0,0.4-0.1,1.6-2,1.7c-0.2,0-0.5,0-1,0c-1.5,0.4-4,1.4-6,2.3c4.9-0.8,13.6-2.6,24.2-5.3c3.6-0.9,6.8-1.8,9.7-2.6
		c-0.8-0.4-1.5-0.8-2.1-1.3c-1.8-1.4-2.8-3.1-2.8-5.1c0-3.3,3.7-5.8,9.6-6.5c6.9-0.9,14.5,1,15.8,6.1c0.5,1.8-1.5,3-2.2,3.4
		c-1.6,1-4.3,2-7.4,3.1c14.3,1.7,37.5-0.5,55.7-4.9c0.8-0.2,1.6,0.3,1.8,1.1c0.2,0.8-0.3,1.6-1.1,1.8c-18.4,4.4-47.5,7.5-62.5,3.9
		c-7.1,2.1-14.7,4-17.9,4.8C418.1,104.5,411.8,105.4,409.2,105.4z M408.8,102.5L408.8,102.5z M454.8,84.1c-0.9,0-1.9,0.1-2.8,0.2
		c-4,0.5-7,2-7,3.5c0,1,0.6,1.9,1.7,2.7c1.2,0.9,2.9,1.6,5,2.2c7.4-2.3,11.6-4,12.7-5C463.4,85.3,459.2,84.1,454.8,84.1z M464.6,88.2
		C464.6,88.2,464.6,88.2,464.6,88.2C464.6,88.2,464.6,88.2,464.6,88.2z"/>
	<circle fill="#6CAC6E" cx="131.2" cy="145.4" r="2.6"/>
</svg>
